<?xml version="1.0" standalone="no"?><!DOCTYPE svg PUBLIC "-//W3C//DTD SVG 1.1//EN" "http://www.w3.org/Graphics/SVG/1.1/DTD/svg11.dtd"><svg t="1747539273305" class="icon" viewBox="0 0 1024 1024" version="1.1" xmlns="http://www.w3.org/2000/svg" p-id="7009" xmlns:xlink="http://www.w3.org/1999/xlink" width="200" height="200"><path d="M337.073067 213.333333C292.4864 213.333333 250.6304 230.272 219.227733 261.034667 187.9104 291.712 170.673067 332.458667 170.673067 375.829333 170.673067 405.248 178.5024 439.381333 191.665067 467.114667 219.761067 530.602667 337.7984 662.805333 516.273067 831.146667 694.747733 662.805333 812.763733 530.602667 840.6464 467.605333 854.0224 439.381333 861.873067 405.269333 861.873067 375.829333 861.873067 332.458667 844.635733 291.712 813.3184 261.034667 781.8944 230.272 740.0384 213.333333 695.473067 213.333333 650.8864 213.333333 609.051733 230.272 577.6064 261.034667 558.641067 279.616 544.475733 302.528 536.603733 327.296L516.273067 391.338667 495.9424 327.296C488.0704 302.528 473.883733 279.616 454.9184 261.034667 423.4944 230.272 381.6384 213.333333 337.073067 213.333333L337.073067 213.333333ZM516.273067 889.770667 496.241067 870.890667C361.563733 744.405333 192.6464 574.741333 152.859733 484.885333 137.137067 451.712 128.0064 411.776 128.0064 375.829333 128.0064 320.896 149.787733 269.312 189.361067 230.570667 228.8064 191.936 281.265067 170.666667 337.073067 170.666667 392.881067 170.666667 445.339733 191.936 484.763733 230.570667 496.9024 242.432 507.483733 255.722667 516.273067 270.058667 525.0624 255.722667 535.643733 242.432 547.761067 230.570667 587.227733 191.936 639.665067 170.666667 695.473067 170.666667 751.281067 170.666667 803.7184 191.936 843.185067 230.570667 882.737067 269.312 904.539733 320.896 904.539733 375.829333 904.539733 411.797333 895.387733 451.733333 879.451733 485.376 839.8784 574.741333 670.9824 744.405333 536.283733 870.890667L516.273067 889.770667Z" fill="#E1C3C8" p-id="7010"></path></svg>