<?xml version="1.0" standalone="no"?><!DOCTYPE svg PUBLIC "-//W3C//DTD SVG 1.1//EN" "http://www.w3.org/Graphics/SVG/1.1/DTD/svg11.dtd"><svg t="1748753082918" class="icon" viewBox="0 0 1024 1024" version="1.1" xmlns="http://www.w3.org/2000/svg" p-id="6797" xmlns:xlink="http://www.w3.org/1999/xlink" width="200" height="200"><path d="M960 923.733333l-64-576c-2.133333-17.066667-14.933333-27.733333-32-27.733333H768c0-140.8-115.2-256-256-256S256 179.2 256 320H160c-17.066667 0-29.866667 12.8-32 27.733333l-64 576c0 8.533333 2.133333 17.066667 8.533333 25.6 6.4 6.4 14.933333 10.666667 23.466667 10.666667h832c8.533333 0 17.066667-4.266667 23.466667-10.666667 6.4-6.4 8.533333-14.933333 8.533333-25.6zM512 128c106.666667 0 192 85.333333 192 192H320c0-106.666667 85.333333-192 192-192zM132.266667 896l57.6-512H256v96c0 17.066667 14.933333 32 32 32s32-14.933333 32-32V384h384v96c0 17.066667 14.933333 32 32 32s32-14.933333 32-32V384h68.266667l57.6 512H132.266667z" fill="#E1C3C8" p-id="6798"></path></svg>