<?xml version="1.0" standalone="no"?><!DOCTYPE svg PUBLIC "-//W3C//DTD SVG 1.1//EN" "http://www.w3.org/Graphics/SVG/1.1/DTD/svg11.dtd"><svg t="1747539311188" class="icon" viewBox="0 0 1024 1024" version="1.1" xmlns="http://www.w3.org/2000/svg" p-id="7207" xmlns:xlink="http://www.w3.org/1999/xlink" width="200" height="200"><path d="M860.16 476.256C811.690667 585.713777 548.864 829.696 516.266667 860.444444 483.669333 829.696 220.842667 585.713777 172.373333 476.256 157.013333 443.836444 149.333333 406.403556 149.333333 375.822223 149.333333 328.69689 167.594667 281.738667 204.288 245.809777 240.981333 209.880889 288.938667 192 337.066667 192 385.194667 192 433.152 209.880889 469.845333 245.809777 492.032 267.534223 507.562667 293.436444 516.266667 320.842667 524.970667 293.436444 540.501333 267.534223 562.688 245.809777 599.381333 209.880889 647.338667 192 695.466667 192 743.594667 192 791.552 209.880889 828.245333 245.809777 864.938667 281.738667 883.2 328.69689 883.2 375.822223 883.2 406.403556 875.52 443.836444 860.16 476.256" fill="#d81e06" p-id="7208"></path></svg>