<?xml version="1.0" standalone="no"?><!DOCTYPE svg PUBLIC "-//W3C//DTD SVG 1.1//EN" "http://www.w3.org/Graphics/SVG/1.1/DTD/svg11.dtd"><svg t="1747217696733" class="icon" viewBox="0 0 1024 1024" version="1.1" xmlns="http://www.w3.org/2000/svg" p-id="12751" xmlns:xlink="http://www.w3.org/1999/xlink" width="200" height="200"><path d="M804.767944 151.203324 219.232056 151.203324c-32.285403 0-58.553116 26.268895-58.553116 58.553116l0 562.067842c0 58.119398 47.277629 105.397027 105.395845 105.397027l491.850429 0c58.119398 0 105.395845-47.277629 105.395845-105.397027L863.32106 209.75644C863.32106 177.471037 837.052165 151.203324 804.767944 151.203324zM839.900286 771.824282c0 45.196492-36.77858 81.975072-81.975072 81.975072l-491.850429 0c-45.19531 0-81.97389-36.77858-81.97389-81.975072L184.100896 209.75644c0-19.373133 15.75921-35.132342 35.131161-35.132342l585.535888 0c19.373133 0 35.132342 15.75921 35.132342 35.132342L839.900286 771.824282z" fill="#E1C3C8" p-id="12752"></path><path d="M726.579337 321.998412c-17.691441 0-32.032499 14.341058-32.032499 32.032499 0 9.819518 4.513267 18.497424 11.469301 24.373299-20.105844 88.641566-99.378155 155.074878-194.016139 155.074878-94.133358 0-173.027495-65.740781-193.65451-153.672089 7.949922-5.828603 13.171083-15.163586 13.171083-25.776087 0-17.691441-14.341058-32.032499-32.032499-32.032499s-32.032499 14.341058-32.032499 32.032499c0 16.393833 12.363918 29.757548 28.247216 31.649598 23.250596 98.004912 111.288265 171.219352 216.301209 171.219352 104.936128 0 192.91589-73.108079 216.243302-171.005447 16.900822-0.885163 30.366171-14.744049 30.366171-31.863503C758.610655 336.33947 744.269597 321.998412 726.579337 321.998412z" fill="#E1C3C8" p-id="12753"></path></svg>