<?xml version="1.0" standalone="no"?><!DOCTYPE svg PUBLIC "-//W3C//DTD SVG 1.1//EN" "http://www.w3.org/Graphics/SVG/1.1/DTD/svg11.dtd"><svg t="1747217409758" class="icon" viewBox="0 0 1024 1024" version="1.1" xmlns="http://www.w3.org/2000/svg" p-id="8845" xmlns:xlink="http://www.w3.org/1999/xlink" width="200" height="200"><path d="M1024 128.284c0 17.673-14.327 32-32 32L32 160.284c-17.673 0-32-14.327-32-32l0 0c0-17.673 14.327-32 32-32l960 0C1009.674 96.284 1024 110.612 1024 128.284L1024 128.284z" fill="#E1C3C8" p-id="8846"></path><path d="M1024 512.284c0 17.673-14.327 32-32 32L32 544.284c-17.673 0-32-14.327-32-32l0 0c0-17.673 14.327-32 32-32l960 0C1009.674 480.284 1024 494.612 1024 512.284L1024 512.284z" fill="#E1C3C8" p-id="8847"></path><path d="M1024 896.284c0 17.673-14.327 32-32 32L32 928.284c-17.673 0-32-14.327-32-32l0 0c0-17.673 14.327-32 32-32l960 0C1009.674 864.284 1024 878.612 1024 896.284L1024 896.284z" fill="#E1C3C8" p-id="8848"></path></svg>